<?xml version="1.0" encoding="UTF-8" standalone="no"?>
<svg
   xmlns:dc="http://purl.org/dc/elements/1.1/"
   xmlns:cc="http://creativecommons.org/ns#"
   xmlns:rdf="http://www.w3.org/1999/02/22-rdf-syntax-ns#"
   xmlns:svg="http://www.w3.org/2000/svg"
   xmlns="http://www.w3.org/2000/svg"
   id="svg8"
   version="1.1"
   width="256"
   height="256"
   viewBox="0 0 67.733 67.733">
  <metadata
     id="metadata14">
    <rdf:RDF>
      <cc:Work
         rdf:about="">
        <dc:format>image/svg+xml</dc:format>
        <dc:type
           rdf:resource="http://purl.org/dc/dcmitype/StillImage" />
        <dc:title></dc:title>
      </cc:Work>
    </rdf:RDF>
  </metadata>
  <defs
     id="defs12" />
  <path
     style="fill:#2f569d;fill-opacity:0.99222398"
     id="path2"
     d="M0 0h67.733v67.733H0z"
     fill-opacity=".959"
     fill="#2f569d" />
  <g
     id="g6"
     style="line-height:1.25;-inkscape-font-specification:'Merriweather Sans'">
    <path
       id="path4"
       stroke-width=".337"
       word-spacing="0"
       letter-spacing="0"
       font-family="Merriweather Sans"
       font-size="13.483"
       font-weight="400"
       aria-label="TUNDRA"
       fill="#fff"
       d="M38.314 28.75c-.434 0-1.025.023-1.771.067-.544.027-.87.04-.975.04h-.922v10.019h.883c.185 0 .402.006.653.02l.52.027c.56.04 1.057.058 1.487.058 1.058 0 1.964-.21 2.72-.63a4.14 4.14 0 001.724-1.838c.4-.804.597-1.769.597-2.897 0-1.575-.403-2.78-1.21-3.613-.808-.834-2.042-1.252-3.706-1.252zm10.487 0c-.492 0-.935.012-1.33.034-.395.017-.627.029-.698.033-.5.027-.83.04-.988.04h-.861v10.019h2.502v-3.541c.474 0 .836-.01 1.086-.027.18.013.336.1.472.257.136.158.253.35.35.579.097.228.214.542.35.941a12.753 12.753 0 00.619 1.574c.044.08.092.151.144.217h2.764l-.414-.723a10.101 10.101 0 01-.303-.574c-.092-.202-.206-.46-.342-.775-.237-.54-.442-.963-.613-1.266a2.338 2.338 0 00-.592-.723c1.058-.495 1.586-1.458 1.586-2.884 0-.79-.179-1.42-.539-1.889a2.835 2.835 0 00-1.369-1 5.54 5.54 0 00-1.824-.291zm8.025.04l-3.49 10.086h2.627l.527-1.87h3.496l.553 1.87h2.66L59.684 28.79zm-52.29.066v1.936h2.679v8.084h2.527v-8.084h2.672v-1.936zm8.997 0l-.025 5.82c-.005 1.37.327 2.43.994 3.18.671.75 1.749 1.125 3.232 1.125 1.41 0 2.45-.366 3.121-1.1.676-.732 1.014-1.787 1.014-3.165v-5.86h-2.476v5.51c0 .672-.061 1.202-.184 1.588-.123.386-.307.659-.553.817-.246.158-.564.236-.955.236-.395 0-.715-.076-.96-.225-.247-.153-.434-.42-.561-.803-.123-.386-.182-.924-.178-1.613l.021-5.51zm10.377 0v10.02h2.27v-4.332l-.309-2.553.73 1.52 3.247 5.365h2.521v-10.02h-2.271v4.413l.27 2.546-.698-1.46-3.416-5.499zm24.582 1.666c1.089 0 1.633.486 1.633 1.456 0 .491-.123.893-.37 1.205-.245.307-.612.46-1.099.46a11.84 11.84 0 01-1.23-.047v-2.955c.285-.079.64-.119 1.066-.119zm-10.283.04c.557 0 1.01.107 1.361.322.356.21.62.558.791 1.04.176.48.264 1.118.264 1.917 0 1.101-.205 1.924-.613 2.469-.408.544-.973.817-1.698.822-.535 0-.918-.032-1.146-.098v-6.387c.132-.022.298-.04.5-.058a6.39 6.39 0 01.541-.028zm20 .257l.328 1.297.93 3.139h-2.483l.889-3.139z" />
  </g>
</svg>
